PathFileType	4	(X/Y/Z)	s11c0401.trc
DataRate	CameraRate	NumFrames	NumMarkers	Units	OrigDataRate	OrigDataStartFrame	OrigNumFrames
200	200	5	48	mm	200	750	2000
Frame#	Time	racr			lacr			c7			jug			rlel			rdr			llel			ldr			s2			lic			ric			lasi			rasi			rpsi			lpsi			rgt			lgt			rth1			rth2			rth3			rth4			rlfc			rmfc			rsh1			rsh2			rsh3			rsh4			rlmal			rcal			rtoe			rmt5			lth1			lth2			lth4			lth3			llfc			lmfc			llmal			lcal			lmt5			lsh1			lsh2			lsh3			lsh4			ltoe			SBIKE			LBIKE			RBIKE			
		X1	Y1	Z1	X2	Y2	Z2	X3	Y3	Z3	X4	Y4	Z4	X5	Y5	Z5	X6	Y6	Z6	X7	Y7	Z7	X8	Y8	Z8	X9	Y9	Z9	X10	Y10	Z10	X11	Y11	Z11	X12	Y12	Z12	X13	Y13	Z13	X14	Y14	Z14	X15	Y15	Z15	X16	Y16	Z16	X17	Y17	Z17	X18	Y18	Z18	X19	Y19	Z19	X20	Y20	Z20	X21	Y21	Z21	X22	Y22	Z22	X23	Y23	Z23	X24	Y24	Z24	X25	Y25	Z25	X26	Y26	Z26	X27	Y27	Z27	X28	Y28	Z28	X29	Y29	Z29	X30	Y30	Z30	X31	Y31	Z31	X32	Y32	Z32	X33	Y33	Z33	X34	Y34	Z34	X35	Y35	Z35	X36	Y36	Z36	X37	Y37	Z37	X38	Y38	Z38	X39	Y39	Z39	X40	Y40	Z40	X41	Y41	Z41	X42	Y42	Z42	X43	Y43	Z43	X44	Y44	Z44	X45	Y45	Z45	X46	Y46	Z46	X47	Y47	Z47	X48	Y48	Z48	
750	3.7500	760.438302	1334.722956	-49.030671	743.250478	1344.985245	-378.095659	730.836689	1431.970210	-212.930522	699.892971	1249.813075	-217.785809	584.406564	1117.674349	63.392794	753.769819	959.974515	-66.714742	545.157623	1162.768532	-553.852470	750.147852	949.554538	-478.538977	118.270263	1305.318111	-237.978781	333.834650	1279.407310	-441.088009	326.024700	1269.690445	-36.500735	344.190946	1197.998372	-414.311325	333.746110	1204.574792	-83.765120	178.164616	1373.002199	-187.405580	173.262753	1362.795598	-278.396096	265.843511	1144.356433	-28.881955	214.114098	1155.063587	-450.028773	362.598517	1034.037540	-35.910936	436.385964	988.095206	-55.454920	475.073648	910.916578	-73.498028	460.915680	1013.363605	-65.615691	540.308775	827.146041	-96.859635	534.103456	808.336764	-222.308765	474.046557	677.028831	-81.138558	454.750598	592.251217	-100.093215	399.632230	525.393872	-96.496069	475.561759	585.885926	-132.987240	324.656990	410.268122	-103.491683	252.343368	402.623192	-148.098344	529.776962	323.964670	-150.525733	458.131443	308.196654	-79.492920	294.882472	1026.537017	-476.319686	353.545693	963.831696	-475.353573	386.168352	979.726694	-467.834835	374.018023	876.334696	-476.825397	420.650783	748.535636	-459.382990	437.387721	733.846328	-333.693265	92.273003	484.207302	-421.927475	33.871094	505.546202	-384.794727	109.483440	311.777928	-451.871416	323.159678	668.868215	-474.771583	277.559509	599.081040	-454.927245	200.194361	557.547931	-447.291849	301.625717	578.003439	-433.868500	185.008809	248.212333	-383.936608	-214.711220	959.184552	-255.964092	-17.777622	81.174522	-460.876298	-17.767852	80.962742	-62.024911	
751	3.7550	761.388469	1334.985321	-50.647665	742.802786	1345.823177	-380.083950	731.176373	1432.450099	-214.379520	700.829329	1250.146227	-219.508359	585.628868	1118.621109	63.523635	753.827169	959.720111	-67.022437	544.945624	1161.867160	-554.057288	749.681120	949.375669	-478.667388	118.088986	1303.936149	-237.505432	333.488536	1279.578106	-440.574020	326.767547	1266.471012	-36.758365	343.783912	1197.765599	-413.663247	334.129314	1201.245239	-83.280461	178.193138	1371.220343	-186.251854	172.820416	1362.481223	-276.849280	263.955125	1140.363702	-29.100669	215.357198	1155.557823	-450.544447	358.569278	1028.246961	-35.789793	431.317181	980.610911	-54.890238	468.283203	902.784008	-73.159362	456.532170	1004.985948	-65.607746	531.521072	817.802935	-96.036926	524.835938	798.133122	-220.808567	466.436103	667.390119	-80.234646	448.831211	582.317662	-99.150339	394.941946	514.257661	-95.778732	470.081830	576.253921	-131.814075	322.431460	398.168551	-103.065984	250.386551	389.595052	-148.582154	528.264301	314.397155	-149.579428	456.824032	297.117271	-79.350824	298.417875	1027.989778	-476.929331	358.658258	967.053357	-476.443263	390.874161	983.668613	-468.658305	381.203370	879.993736	-477.948766	430.210705	753.616347	-459.952795	446.968878	738.997895	-334.214212	97.962554	494.745327	-422.207107	40.194762	517.355962	-384.708159	111.020541	321.845416	-451.732253	331.597235	675.188265	-475.183502	284.990123	606.068972	-455.125979	206.994323	565.812224	-447.407359	308.784776	584.815427	-434.010775	184.857827	256.347675	-383.924714	-214.690262	959.192104	-255.917621	-17.754145	81.186208	-460.872709	-17.771844	80.957996	-62.018580	
752	3.7600	762.365023	1335.483547	-52.191068	742.363675	1346.795921	-382.161176	731.333349	1433.132208	-215.808626	701.640568	1250.863760	-221.337725	586.914308	1119.603826	63.571833	754.092614	959.629606	-67.087432	544.691250	1161.074333	-554.221078	749.164761	949.198101	-479.180666	119.389418	1302.022583	-238.689359	333.129776	1279.564976	-439.779541	327.269141	1263.389812	-36.357847	343.520896	1197.450093	-412.870888	334.681310	1197.817406	-82.663795	178.139641	1368.819682	-184.327164	173.550854	1361.408531	-276.832092	261.778955	1136.282883	-29.306575	216.357925	1155.945419	-450.809310	354.324125	1022.374746	-35.304465	425.847413	973.159381	-54.227094	461.200945	894.552757	-72.885258	452.122454	996.702872	-65.199758	522.422965	808.422426	-95.193989	515.311814	788.409810	-219.533066	458.397727	657.840062	-79.287956	442.468375	572.549533	-98.286497	389.801089	503.576711	-95.154815	464.129621	566.737940	-130.862152	319.648433	386.295384	-102.734802	247.659793	377.316698	-148.311808	526.018276	302.937382	-150.561000	454.744707	286.289775	-79.235338	301.880550	1029.851841	-478.013231	363.646007	970.372842	-477.435720	395.420222	987.673659	-469.240192	388.416628	883.790942	-479.077159	439.708122	758.936360	-460.510586	456.603934	744.538613	-334.652800	103.990849	505.175898	-422.427850	46.802007	528.972910	-384.605293	113.082160	332.260545	-452.240935	340.194893	681.663867	-475.518066	292.586201	613.186198	-455.284844	214.045266	574.128219	-447.487609	316.160564	591.711313	-433.939561	185.575724	264.702131	-383.985731	-214.649041	959.205630	-255.907389	-17.754064	81.184756	-460.862720	-17.754563	80.900548	-61.973824	
753	3.7650	763.208543	1336.189622	-53.778664	741.861081	1347.774049	-384.200732	731.298110	1433.955365	-217.154256	702.594292	1251.303955	-223.165452	588.086212	1120.705791	63.276859	754.540175	959.703933	-66.837135	544.384058	1160.267646	-554.369659	748.194336	948.658226	-478.897675	119.070734	1300.344327	-238.020693	332.845599	1279.555047	-438.943566	327.975271	1259.984986	-36.369400	343.360998	1197.084114	-412.060788	335.513270	1194.338533	-81.983442	177.929250	1366.684663	-182.872205	173.644055	1360.146449	-277.271863	259.731673	1131.928761	-29.440840	217.274283	1156.314218	-450.870391	349.736696	1016.466909	-34.829940	420.259014	965.594411	-53.709634	453.928768	886.302962	-72.523304	447.062569	988.654074	-64.361008	512.773680	799.329993	-94.540131	504.786231	778.271996	-216.651200	449.873112	648.508086	-78.645452	435.806863	563.075402	-96.899510	384.143714	493.148096	-94.679085	457.775604	557.389667	-129.796177	316.324979	374.704193	-102.490390	244.349896	365.521574	-148.147507	523.228602	292.613523	-150.401716	452.039338	275.248262	-79.051440	305.241095	1031.698565	-479.017942	368.533763	973.774813	-478.233941	399.731666	991.883246	-469.479646	395.380293	887.810587	-480.197996	449.148928	764.506058	-461.003102	466.413160	750.285542	-334.996967	110.271861	515.467286	-422.502422	53.547933	540.268293	-384.527897	115.926326	342.300433	-452.164289	348.728923	688.258521	-475.623026	300.371754	620.574234	-455.342860	221.293932	582.401007	-447.566348	323.566926	598.730589	-433.942612	186.981611	273.147230	-383.977271	-214.616061	959.200973	-255.861529	-17.745170	81.193267	-460.852951	-17.757063	80.902976	-61.971262	
754	3.7700	763.967066	1337.056944	-55.436086	741.309364	1348.789571	-386.364823	731.070390	1434.846896	-218.495552	703.529196	1251.810624	-225.008147	589.248459	1121.875138	62.981489	755.162015	959.914424	-66.317096	543.970140	1159.569701	-554.558215	748.470403	948.887207	-480.632747	118.804945	1298.671554	-237.388789	332.491287	1279.374604	-437.933241	328.258714	1256.630620	-35.351381	343.224808	1196.658398	-411.127576	335.891794	1190.717158	-81.248004	177.758597	1364.401081	-181.452138	173.383106	1358.592069	-275.932416	257.495972	1127.619513	-29.690519	218.368202	1156.781424	-451.366718	344.897022	1010.550842	-34.352788	414.317135	958.013552	-53.299364	446.058690	878.151400	-72.424761	441.761669	980.370495	-63.584075	503.159100	790.236675	-93.979613	496.415635	769.919175	-215.322856	441.020775	639.484332	-78.173945	428.465945	553.897989	-96.267964	377.900907	483.063805	-94.221997	450.962881	548.158758	-128.884666	312.165731	363.333062	-102.314404	240.597457	353.857776	-148.133569	519.418408	281.587972	-150.683676	448.597168	264.470549	-78.967567	308.541403	1033.679963	-479.810626	373.289715	977.308999	-478.706931	403.921702	996.114036	-469.390299	402.144177	892.161362	-481.145236	458.456982	770.267299	-461.542500	476.271366	756.133788	-335.273844	116.706193	525.599550	-422.535944	60.424248	551.273664	-384.426228	119.406473	352.282527	-452.035004	357.566368	694.997598	-475.944250	308.138712	627.908887	-455.428312	228.576196	590.895822	-447.616289	331.088926	605.880625	-434.024337	189.221711	281.867603	-384.085743	-214.600061	959.197469	-255.834604	-17.746177	81.178856	-460.846565	-17.751584	80.883200	-61.967029	
